#define cpu_width 12
#define cpu_height 12
static unsigned char cpu_bits[] = {
   0x60, 0x00, 0xf8, 0x01, 0x9e, 0x07, 0x07, 0x0e, 0x07, 0x0e, 0x9e, 0x07,
   0xf9, 0x09, 0x67, 0x0e, 0x9e, 0x07, 0xf9, 0x09, 0x64, 0x02, 0x90, 0x00 };
