#define dn_width 12
#define dn_height 12
static unsigned char dn_bits[] = {
   0x00, 0x00, 0x00, 0x00, 0x30, 0x00, 0x60, 0x00, 0xe0, 0x00, 0xe0, 0x00,
   0xf8, 0x03, 0xf0, 0x01, 0xe0, 0x00, 0x40, 0x00, 0x00, 0x00, 0x00, 0x00 };
