#define mem_width 12
#define mem_height 12
static unsigned char mem_bits[] = {
   0x00, 0x00, 0x92, 0x04, 0x92, 0x04, 0xff, 0x0f, 0xff, 0x0f, 0x07, 0x0e,
   0x07, 0x0e, 0xff, 0x0f, 0xff, 0x0f, 0x92, 0x04, 0x92, 0x04, 0x00, 0x00 };
