#define full_width 16
#define full_height 16
static char full_bits[] = {
  0x00, 0x00, 0xFE, 0x7F, 0xFE, 0x7F, 0xFE, 0x7F, 0xFE, 0x7F, 0xFE, 0x7F, 
  0xFE, 0x7F, 0xFE, 0x7F, 0xFE, 0x7F, 0xFE, 0x7F, 0xFE, 0x7F, 0xFE, 0x7F, 
  0xFE, 0x7F, 0xFE, 0x7F, 0xFE, 0x7F, 0x00, 0x00, };
