#define im_width 16
#define im_height 16
static char im_bits[] = {
  0x00, 0x00, 0xFE, 0x77, 0xFE, 0x77, 0xFE, 0x77, 0xFE, 0x77, 0xFE, 0x77, 
  0xFE, 0x77, 0xFE, 0x77, 0xFE, 0x77, 0xFE, 0x77, 0xFE, 0x77, 0xFE, 0x77, 
  0xFE, 0x77, 0xFE, 0x77, 0xFE, 0x77, 0x00, 0x00, };
