#define tabbed_width 16
#define tabbed_height 16
static char tabbed_bits[] = {
  0x00, 0x00, 0xDE, 0x7B, 0x00, 0x00, 0xFE, 0x7F, 0xFE, 0x7F, 0xFE, 0x7F, 
  0xFE, 0x7F, 0xFE, 0x7F, 0xFE, 0x7F, 0xFE, 0x7F, 0xFE, 0x7F, 0xFE, 0x7F, 
  0xFE, 0x7F, 0xFE, 0x7F, 0xFE, 0x7F, 0x00, 0x00, };
