#define tall_width 16
#define tall_height 16
static char tall_bits[] = {
  0x00, 0x00, 0xFE, 0x7E, 0xFE, 0x7E, 0xFE, 0x7E, 0xFE, 0x7E, 0xFE, 0x00, 
  0xFE, 0x7E, 0xFE, 0x7E, 0xFE, 0x7E, 0xFE, 0x7E, 0xFE, 0x00, 0xFE, 0x7E, 
  0xFE, 0x7E, 0xFE, 0x7E, 0xFE, 0x7E, 0x00, 0x00, };
