#define tall_mirr_width 16
#define tall_mirr_height 16
static char tall_mirr_bits[] = {
  0x00, 0x00, 0xFE, 0x7F, 0xFE, 0x7F, 0xFE, 0x7F, 0xFE, 0x7F, 0xFE, 0x7F, 
  0xFE, 0x7F, 0xFE, 0x7F, 0x00, 0x00, 0xDE, 0x7B, 0xDE, 0x7B, 0xDE, 0x7B, 
  0xDE, 0x7B, 0xDE, 0x7B, 0xDE, 0x7B, 0x00, 0x00, };
