/* XPM */
static char * en_xpm[] = {
"30 20 3 1",
" 	c #3333FF",
".	c #CC0000",
"+	c #FFFFFF",
"               ...............",
"               ...............",
"  +  +  +  +   +++++++++++++++",
"               ...............",
"               ...............",
"   +  +  +  +  +++++++++++++++",
"               ...............",
"               ...............",
"  +  +  +  +   +++++++++++++++",
"               ...............",
"               ...............",
"++++++++++++++++++++++++++++++",
"..............................",
"..............................",
"++++++++++++++++++++++++++++++",
"..............................",
"..............................",
"++++++++++++++++++++++++++++++",
"..............................",
".............................."};
