/* XPM */
static char * en_xpm[] = {
"20 14 4 1",
" 	c None",
".	c #CC0000",
"+	c #FFFFFF",
"@	c #3333FF",
".++@@@@@+..+@@@@@++.",
"...++@@@+..+@@@++...",
"++...++@+..+@++...++",
"@@++...++..++...++@@",
"@@@@++..+..+..++@@@@",
"+++++++++..+++++++++",
"....................",
"....................",
"+++++++++..+++++++++",
"@@@@++..+..+..++@@@@",
"@@++...++..++...++@@",
"++...++@+..+@++...++",
"...++@@@+..+@@@++...",
".++@@@@@+..+@@@@@++."};
