/* XPM */
static char * ru_xpm[] = {
"30 20 3 1",
" 	c #FFFFFF",
".	c #3333FF",
"+	c #CC0000",
"                              ",
"                              ",
"                              ",
"                              ",
"                              ",
"                              ",
"                              ",
"..............................",
"..............................",
"..............................",
"..............................",
"..............................",
"..............................",
"++++++++++++++++++++++++++++++",
"++++++++++++++++++++++++++++++",
"++++++++++++++++++++++++++++++",
"++++++++++++++++++++++++++++++",
"++++++++++++++++++++++++++++++",
"++++++++++++++++++++++++++++++",
"++++++++++++++++++++++++++++++"};
