/* XPM */
static char * en_xpm[] = {
"18 12 4 1",
" 	c None",
".	c #CC0000",
"+	c #FFFFFF",
"@	c #3333FF",
"..++@@@+..+@@@++..",
"+...++@+..+@++...+",
"@++...++..++...++@",
"@@@++..+..+..++@@@",
"++++++++..++++++++",
"..................",
"..................",
"++++++++..++++++++",
"@@@++..+..+..++@@@",
"@++...++..++...++@",
"+...++@+..+@++...+",
"..++@@@+..+@@@++.."};
